# xmcd
#
# Track frame offsets:
#	150
#	12376
#	23503
#	35155
#	44534
#	53602
#	67838
#	77611
#	98191
#	107897
#	125675
#	140951
#	152334
#	170312
#	179286
#	194927
#	207286
#	222098
#	230727
#	242013
#
# Disc length: 3308
#
# Revision: 4
# Processed by: cddbd v1.5.1PL0 Copyright (c) Steve Scherf et al.
# Submitted via: Axialis_AX_CDPlayer 2.6
# Normalized: r3:DSETVAR1
#
DISCID=1c0cea14
DTITLE=Various Artist - Home for Christmas  Disc B
DYEAR=1900
DGENRE=
TTITLE0=Dwight Yoakam - Santa Claus Is Back in Town
TTITLE1=The Louvin Brothers - While Shepherds Watched Their Flocks
TTITLE2=Sonny James - Christmas in My Hometown
TTITLE3=Tammy Wynette and The O'Kanes - Away in A Manger
TTITLE4=Jimmy Dean - Jingle Bells
TTITLE5=Marty Robbins - Hark! The Herald Angels Sing
TTITLE6=Lynn Anderson - Soon It will Be Christmas Day
TTITLE7=Charlie McCoy - The First Noel
TTITLE8=Hank Thompson - Here Comes Santa Claus
TTITLE9=The Oak Ridge Boys - O Holy Night
TTITLE10=Alabama - Christmas Memories
TTITLE11=Johnny Cash - I Heard the Bells on Christmas Day
TTITLE12=Ray Price - The Little Drummer Boy
TTITLE13=Loretta Lynn - Frosty the Snowman
TTITLE14=B.J. Thomas - O Little Town of Bethlehem
TTITLE15=Gene Autry - Santa Claus Is Comin' To Town
TTITLE16=Slim Whitman - Angels We Have Heard on High
TTITLE17=Charley Pride - Deck the Halls
TTITLE18=Connie Smith - Go Tell It on the Mountain
TTITLE19=The Everly Brothers and The Boys Town Choir - We Wish You a Merry Christmas
EXTD=was sold in a two disc set
EXTT0=Dwight Yoakim\n
EXTT1=The Louvin Brothers\n
EXTT2=Sonny James\n
EXTT3=Tammy Wynette and The O'Kanes\n
EXTT4=Jimmy Dean\n
EXTT5=Marty Robbins\n
EXTT6=Lynn Anderson\n
EXTT7=Charlie McCoy\n
EXTT8=Hank Thompson\n
EXTT9=The Oak Ridge Boys\n
EXTT10=Alabama\n
EXTT11=Johnny Cash\n
EXTT12=Ray Price\n
EXTT13=Loretta Lynn\n
EXTT14=B.J. Thomas\n
EXTT15=Gene Autry\n
EXTT16=Slim Whitman\n
EXTT17=Charley Pride\n
EXTT18=Connie Smith\n
EXTT19=The Everly Brothers and The Boys Town \nChoir\n
PLAYORDER=
